<svg width="204" height="163" viewBox="0 0 204 163" fill="none" xmlns="http://www.w3.org/2000/svg">
<path d="M203.981 76.3862L187.354 70.1523C171.979 64.3873 159.839 52.267 154.064 36.9168L147.82 20.3164H137.628L133.001 32.6278C100.86 9.42889 76.4923 1.35443 56.3688 0.15628C54.6122 0.0520933 52.8903 0 51.1858 0C30.6275 0 14.6783 7.67508 6.27761 21.6014C-3.41018 37.6808 -1.82743 60.3762 10.6258 83.8702C21.8442 105.037 40.5762 124.885 63.3955 139.784C86.3192 154.752 110.739 163 132.167 163C153.595 163 167.091 155.412 175.144 144.281L173.214 142.649C166.065 149.247 155.108 152.633 137.141 152.633C100.999 150.202 58.4908 123.27 35.7236 88.9407C35.3062 88.2982 35.7584 87.4647 36.5237 87.4647H65.4131C76.1097 87.4647 86.7193 89.3921 96.7375 93.1429L98.0767 93.6464C113.678 99.4982 125.992 111.792 131.854 127.368L137.611 142.666H147.82L154.064 126.066C157.595 116.689 163.491 108.528 171.039 102.277C173.666 100.106 176.483 98.1785 179.458 96.4942C179.597 96.4074 184.78 93.7853 187.354 92.8129L203.981 86.5791V76.3862ZM128.845 42.3345C122.287 54.698 111.382 64.3526 98.0941 69.3362L96.6157 69.8919C86.5975 73.6426 74.0225 75.57 65.2913 75.57C26.3489 75.57 23.9139 67.895 21.6702 57.2158C19.2004 45.4948 20.3658 34.972 25.2531 26.8628C31.0797 17.1908 42.0372 11.4432 56.421 10.3839C58.0385 10.2624 59.6909 10.1929 61.3954 10.1929C83.919 10.1929 109.539 20.4206 131.54 36.4827C130.74 38.497 129.853 40.4418 128.845 42.3171V42.3345Z" fill="#FF6601"/>
</svg>
