<svg width="148" height="19" viewBox="0 0 148 19" fill="none" xmlns="http://www.w3.org/2000/svg">
<path d="M82.2275 0C86.9022 0 90.3799 2.34401 90.3799 7.15723H86.4238C86.4238 4.64985 84.7353 3.18753 82.2783 3.1875C78.9015 3.1875 77.3643 5.22937 77.3643 8.95898V9.77734C77.3643 13.5825 78.9014 15.5732 82.2529 15.5732C84.8989 15.5732 86.5879 14.1625 86.5879 11.6299H90.3926C90.3926 16.4305 86.9904 18.7617 82.2402 18.7617C76.5703 18.7616 73.2695 15.8631 73.2695 9.38672L73.2568 9.37402C73.257 3.0366 76.5452 0.000110883 82.2275 0ZM7.875 0C11.8566 0 15.1328 1.61288 15.1328 5.30469V5.45605H11.3018V5.41797C11.3017 4.01943 9.97927 3.12505 7.90039 3.125C5.68278 3.125 4.41016 3.78006 4.41016 4.91406C4.41026 8.2908 15.5986 6.38863 15.5986 12.9658C15.5984 17.1361 12.3226 18.749 7.8623 18.749C3.61614 18.749 0 17.0856 0 13.041V12.7139H3.90625V12.9902C3.90625 14.6786 5.30509 15.5732 7.8125 15.5732C10.3196 15.5731 11.5918 14.8426 11.5918 13.5449C11.5916 9.80289 0.403427 11.9321 0.40332 5.17871C0.40332 1.58771 3.6792 5.4353e-06 7.875 0ZM101.896 0C107.667 0 111.182 3.03648 111.183 9.37402C111.183 15.7118 107.693 18.749 101.896 18.749C96.1005 18.749 92.6357 15.6866 92.6357 9.37402C92.6359 3.03649 96.1258 1.10303e-05 101.896 0ZM147.849 3.54102H137.341V7.77441H146.627V10.9746H137.341V15.1826H148V18.4336H133.371V0.327148L133.384 0.31543H147.849V3.54102ZM29.5342 9.36133L35.6582 18.4199H30.958L25.8779 11.0225H23.2344V18.4326H19.3281V0.314453H23.2344V7.70898H26.1367L30.9082 0.301758H35.6582L29.5342 9.36133ZM42.9033 18.4209H38.9717V0.31543H42.9033V18.4209ZM51.3955 15.0693H58.0107V18.4209H47.4648V0.31543H51.3955V15.0693ZM64.9658 15.0693H71.5811V18.4209H61.0342V0.31543H64.9658V15.0693ZM124.136 0.31543C128.142 0.315494 130.133 2.54554 130.133 5.7207C130.133 8.06413 129.024 9.32359 127.046 10.2686L130.738 18.4209H126.378L123.178 10.9238H118.138V18.4209H114.207V0.31543H124.136ZM101.896 3.22559C98.4694 3.2256 96.6925 5.22887 96.6924 8.9834V9.80273C96.6924 13.4945 98.4819 15.5361 101.896 15.5361C105.311 15.5361 107.15 13.5071 107.15 9.80273V8.9834C107.15 5.24146 105.324 3.22559 101.896 3.22559ZM118.138 7.8125H123.606C125.169 7.81249 126.114 7.58488 126.114 5.77051C126.114 4.34691 125.219 3.51565 123.606 3.51562H118.138V7.8125Z" fill="#222324"/>
</svg>
